PathFileType	4	(X/Y/Z)	D:\Share\Shared_Data\Ergonomics\Sit To Stand Pertubation\S0\Free STS.trc
DataRate	CameraRate	NumFrames	NumMarkers	Units	OrigDataRate	OrigDataStartFrame	OrigNumFrames	
100	100	8	18	m	100	2341	231
Frame#	Time	R_Toe			R_ASIS			R_Pelvis			V_Sacral			L_Pelvis			L_ASIS			Clavical			R_Acromium			L_Acromium			Sternum			Torso			R_Thigh_Med			R_Thigh_Lat			R_Thigh			R_Shank_Med			R_Shank_Lat			R_Shank			R_Heel			
		X1	Y1	Z1	X2	Y2	Z2	X3	Y3	Z3	X4	Y4	Z4	X5	Y5	Z5	X6	Y6	Z6	X7	Y7	Z7	X8	Y8	Z8	X9	Y9	Z9	X10	Y10	Z10	X11	Y11	Z11	X12	Y12	Z12	X13	Y13	Z13	X14	Y14	Z14	X15	Y15	Z15	X16	Y16	Z16	X17	Y17	Z17	X18	Y18	Z18	

2341	9.83	0.38099301	0.044252937	0.14156488	0.30974307	0.98607037	0.14984552	0.19235452	1.0199243	0.19522437	0.0726409	1.0345088	-0.034882313	0.21157875	1.0054295	-0.21722867	0.32381744	0.9694613	-0.16559325	0.40935556	1.4069783	-0.016725389	0.33285135	1.4767771	0.12501308	0.32604166	1.4830676	-0.16536087	0.43074249	1.3108643	-0.034285229	0.40798019	1.3605127	-0.14013512	0.32967804	0.48504788	0.048303669	0.32586423	0.51092709	0.1767561	0.38512573	0.65063043	0.10813463	0.25453088	0.098257805	0.099908485	0.19793449	0.091779701	0.18978439	0.26124313	0.31456662	0.20018459	0.15544429	0.047298466	0.1480674
2342	9.84	0.38101019	0.044268688	0.14155545	0.3124794	0.9881601	0.14962308	0.19448363	1.0209512	0.19489178	0.074761139	1.0348882	-0.035168667	0.21373135	1.0064099	-0.21745999	0.32629892	0.9713858	-0.16597795	0.40737564	1.4102767	-0.016997902	0.33022958	1.4792821	0.12494054	0.32328607	1.485698	-0.16567117	0.42972504	1.3143909	-0.034668594	0.40638336	1.3638591	-0.14050687	0.32836139	0.48532217	0.04773447	0.32458832	0.51135349	0.17607117	0.38513858	0.65048926	0.10749952	0.25451476	0.098307449	0.09985215	0.1978618	0.091829178	0.18965244	0.26030832	0.31482809	0.19978059	0.15546452	0.04730006	0.14799518
2343	9.85	0.38102307	0.044287212	0.14154047	0.31518149	0.99017554	0.14943755	0.19656584	1.0218994	0.19456877	0.076821075	1.0352262	-0.035430428	0.21580554	1.0073201	-0.2176675	0.32868964	0.97322687	-0.16636455	0.40538681	1.4134124	-0.017267456	0.32761804	1.4816434	0.12486622	0.3205462	1.488168	-0.16597505	0.42867514	1.3177585	-0.035044621	0.40475177	1.367035	-0.14087228	0.32701071	0.48560132	0.047160881	0.32327856	0.51176639	0.17538193	0.3850824	0.65033258	0.10685645	0.25448405	0.09835305	0.099808067	0.19778697	0.09186824	0.18953409	0.25935324	0.31507935	0.19938034	0.15549754	0.047280853	0.14793414
2344	9.86	0.38103241	0.044309742	0.14151825	0.31781549	0.99210535	0.14928777	0.19859959	1.0227651	0.19425945	0.078819626	1.0355258	-0.035665199	0.21780296	1.008165	-0.21784935	0.33100198	0.97499707	-0.16676108	0.40339444	1.4163888	-0.017528049	0.32501752	1.483868	0.12479274	0.31782761	1.4904814	-0.16627014	0.42759641	1.320969	-0.035404755	0.40308734	1.3700405	-0.14122485	0.32562463	0.48587616	0.046591568	0.32193768	0.51216479	0.17469194	0.38494873	0.65015991	0.10620641	0.25444644	0.098397827	0.099779739	0.19771088	0.091897392	0.1894295	0.25838095	0.31532028	0.19898875	0.15553786	0.047242466	0.14788582
2345	9.87	0.38103845	0.044337425	0.14148744	0.32035196	0.99393567	0.14916898	0.20058214	1.0235471	0.19396889	0.080754005	1.0357887	-0.035870853	0.21972525	1.008949	-0.21800351	0.33324799	0.97670758	-0.16717349	0.40140363	1.4192104	-0.01777426	0.32242883	1.4859624	0.12472274	0.31513434	1.4926415	-0.16655383	0.42649338	1.3240245	-0.035741219	0.4013963	1.3728783	-0.14155876	0.32420377	0.48614114	0.046033741	0.32056595	0.51254987	0.17400436	0.3847327	0.64997437	0.1055515	0.2544066	0.098444084	0.099768707	0.19763286	0.091917313	0.18933725	0.25739252	0.3155517	0.19861018	0.15557613	0.047187912	0.14785031
2346	9.88	0.38104071	0.044371094	0.14144762	0.32277377	0.9956499	0.14907231	0.20251007	1.0242461	0.19370131	0.082620033	1.0360153	-0.036046249	0.22157399	1.0096762	-0.21812839	0.3354357	0.97836469	-0.16760381	0.39941864	1.4218811	-0.018001724	0.31985303	1.487932	0.12465891	0.31246881	1.49465	-0.16682365	0.42537106	1.3269285	-0.03604726	0.39968735	1.3755527	-0.14186879	0.32274893	0.48639529	0.045492035	0.31916162	0.51292419	0.17332217	0.38443454	0.64978156	0.10489671	0.25436488	0.098492424	0.099773521	0.19755003	0.091928169	0.1892549	0.25638763	0.31577444	0.19824724	0.15560335	0.047119438	0.14782648
2347	9.89	0.38103757	0.044410988	0.14139999	0.32507339	0.99723059	0.1489866	0.20438045	1.0248656	0.19345946	0.084414688	1.036205	-0.036191742	0.22335127	1.0103497	-0.21822394	0.33756778	0.97996844	-0.1680493	0.39744232	1.4244042	-0.018207272	0.31729163	1.4897806	0.12460387	0.30983188	1.4965087	-0.16707764	0.42423434	1.3296841	-0.036317574	0.39797006	1.378069	-0.14215048	0.32126062	0.48664194	0.04496851	0.31772125	0.51329053	0.17264905	0.38405887	0.64958826	0.1042508	0.25431702	0.098541702	0.09978965	0.19745735	0.091928902	0.18917975	0.25536502	0.31598962	0.19790103	0.15561374	0.047037262	0.14781258
2348	9.9	0.38102628	0.044456562	0.14134796	0.32724738	0.99866364	0.14890193	0.20619171	1.0254105	0.19324413	0.08613765	1.036354	-0.036309273	0.22506004	1.0109725	-0.21829196	0.33964249	0.98151306	-0.1685027	0.39547659	1.4267826	-0.018388935	0.31474643	1.491512	0.12456003	0.30722433	1.4982192	-0.16731468	0.42308713	1.3322948	-0.036548576	0.3962536	1.3804325	-0.14240039	0.31973843	0.48688687	0.044463688	0.31623947	0.51365125	0.17199022	0.38361127	0.64940021	0.10362571	0.25425586	0.098589653	0.099811028	0.1973488	0.091917526	0.18910991	0.25432237	0.31619885	0.19757234	0.15560439	0.046940147	0.14780688
